<?xml version="1.0" encoding="UTF-8" standalone="no"?>
<!-- Created with Inkscape (http://www.inkscape.org/) -->

<svg
   version="1.1"
   id="svg2"
   width="108"
   height="107.00001"
   viewBox="0 0 108 107.00001"
   sodipodi:docname="Bildschirmfoto_20250810_113114.png"
   xmlns:inkscape="http://www.inkscape.org/namespaces/inkscape"
   xmlns:sodipodi="http://sodipodi.sourceforge.net/DTD/sodipodi-0.dtd"
   xmlns="http://www.w3.org/2000/svg"
   xmlns:svg="http://www.w3.org/2000/svg">
  <defs
     id="defs6" />
  <sodipodi:namedview
     id="namedview4"
     pagecolor="#ffffff"
     bordercolor="#666666"
     borderopacity="1.0"
     inkscape:showpageshadow="2"
     inkscape:pageopacity="0.0"
     inkscape:pagecheckerboard="0"
     inkscape:deskcolor="#d1d1d1"
     showgrid="false" />
  <g
     inkscape:groupmode="layer"
     inkscape:label="Image"
     id="g8"
     transform="translate(152.64694,87.226822)">
    <g
       id="g1051"
       transform="translate(-152.35225,-87.521505)">
      <path
         style="fill:#ecca82"
         d="M -0.29468521,53.794685 V 0.29468521 H 53.705315 107.70531 V 53.794685 107.29469 H 53.705315 -0.29468521 Z"
         id="path1075" />
      <path
         style="fill:#d4af70"
         d="M -0.29468521,53.794685 V 0.29468521 H 53.705315 107.70531 V 53.794685 107.29469 H 53.705315 -0.29468521 Z M 62.205062,80.591222 c 3.845957,-5.036896 12.500253,-21.582321 12.500253,-23.898187 0,-2.030469 -1.561841,-1.71795 -4.256187,0.85165 -4.047579,3.860178 -6.799561,9.294252 -6.51161,12.857852 l 0.267797,3.31419 -3.5,1.739788 c -1.925,0.956883 -5.707607,2.054198 -8.405793,2.438476 l -4.905793,0.698689 1.846923,1.350502 c 1.015807,0.742777 2.645081,1.350503 3.620609,1.350503 0.975528,0 2.255352,0.9 2.844054,2 1.561905,2.918446 2.507371,2.525195 6.499747,-2.703463 z M 45.705315,72.869875 c 0,-1.535569 -1.495108,-3.847404 -4.076907,-6.303984 -2.738507,-2.605688 -4.661265,-5.667036 -5.856926,-9.32519 l -1.78002,-5.446016 -2.139335,3.5 c -1.176635,1.925 -2.141018,3.804088 -2.143074,4.175751 -0.0057,1.03618 14.124654,15.824249 15.120483,15.824249 0.481679,0 0.875779,-1.091165 0.875779,-2.42481 z"
         id="path1073" />
      <path
         style="fill:#b18e5b"
         d="M -0.29468521,53.794685 V 0.29468521 H 53.705315 107.70531 V 53.794685 107.29469 H 53.705315 -0.29468521 Z M 60.674473,85.025375 c 8.13039,-12.71717 14.855663,-24.931238 15.431985,-28.026714 l 0.706751,-3.796023 -2.303947,-1.974349 c -2.908553,-2.492461 -7.852178,-5.218706 -8.424856,-4.646029 -0.239276,0.239277 0.02754,1.651753 0.592931,3.138836 1.510326,3.97246 1.241053,6.546642 -1.210659,11.573589 -1.207092,2.475 -2.434709,6.3 -2.728038,8.5 l -0.533325,4 -5.884109,1.910291 c -6.783636,2.202326 -8.934837,1.516017 -9.438306,-3.011153 -0.189776,-1.706457 -1.914293,-4.544705 -4.19191,-6.899138 -5.246562,-5.423511 -6.434193,-8.826401 -4.941348,-14.158322 1.542251,-5.508377 1.052479,-6.798212 -1.817961,-4.787678 -2.282113,1.598455 -7.233297,10.284168 -7.218247,12.662756 0.01048,1.65581 16.990549,19.458145 23.464077,24.600329 5.348917,4.248861 6.299322,4.35105 8.496962,0.913605 z m -3.52514,-22.873234 1.944019,-3.618939 -1.247945,-4.165268 c -0.838769,-2.799563 -2.088478,-4.54824 -3.811491,-5.333297 l -2.563546,-1.16803 -1.882528,2.324823 c -2.467444,3.047165 -2.40227,8.738507 0.14797,12.921426 2.53417,4.156562 4.824031,3.85982 7.413521,-0.960715 z"
         id="path1071" />
      <path
         style="fill:#977147"
         d="M -0.29468521,53.794685 V 0.29468521 H 53.705315 107.70531 V 53.794685 107.29469 H 53.705315 -0.29468521 Z M 68.654536,73.47148 c 4.344846,-7.327763 8.185753,-15.016224 8.53535,-17.08547 l 0.63563,-3.762265 -3.3101,-2.545369 c -1.820556,-1.399952 -4.975296,-4.173991 -7.010535,-6.164529 -6.147627,-6.012607 -7.42032,-4.636464 -3.299566,3.567773 3.108911,6.189703 3.107728,7.965628 -0.0098,14.662362 -1.369596,2.942113 -2.4902,6.600019 -2.4902,8.128679 0,3.211173 -3.626672,5.227466 -9.734369,5.411943 l -3.644565,0.110081 -0.704541,-3.349292 c -0.387497,-1.84211 -2.346387,-5.030694 -4.353087,-7.085742 -4.950449,-5.069719 -5.577749,-8.044827 -3.37284,-15.996416 2.179208,-7.858902 2.232337,-9.06855 0.398296,-9.06855 -2.754423,0 -12.616912,15.073591 -12.57641,19.221483 0.01477,1.512777 17.375075,19.882545 24.35168,25.767678 l 4.864165,4.103178 1.910587,-1.296169 c 1.050822,-0.712894 5.46546,-7.291612 9.810305,-14.619375 z M 56.654463,64.632203 c 4.332511,-5.507895 3.466009,-13.481586 -1.878612,-17.287292 -3.868802,-2.75483 -4.425831,-2.625398 -6.385324,1.483701 -2.827177,5.928653 -2.073416,11.933555 2.098275,16.716073 2.118827,2.42907 3.724065,2.191504 6.165661,-0.912482 z"
         id="path1069" />
      <path
         style="fill:#f24217"
         d="M -0.29468521,53.794685 V 0.29468521 H 53.705315 107.70531 V 53.794685 107.29469 H 53.705315 -0.29468521 Z M 60.029249,88.827893 c 0.806736,-0.806735 3.169056,-4.519235 5.2496,-8.25 2.080544,-3.730764 5.658049,-9.716755 7.950009,-13.302201 2.29196,-3.585446 4.480328,-8.188107 4.86304,-10.228135 L 78.787737,53.338416 66.014729,40.70367 C 52.710963,27.543913 49.890786,25.589873 46.680965,27.307717 41.756924,29.942983 25.688353,57.665981 27.363124,60.636658 c 1.650713,2.928004 19.926519,22.045025 24.681989,25.818072 5.418321,4.298963 5.91169,4.445609 7.984136,2.373163 z M 49.439365,74.695401 c -0.403728,-0.403727 -0.73405,-1.544028 -0.73405,-2.534003 0,-0.989974 -2.080951,-4.142993 -4.624335,-7.006708 l -4.624335,-5.206754 0.589443,-5.639488 c 0.324194,-3.101718 1.495261,-7.6362 2.602373,-10.076625 1.107111,-2.440426 2.022813,-5.26913 2.034892,-6.286009 0.03319,-2.79416 3.080478,-8.651129 4.501045,-8.651129 2.405609,0 6.520917,4.125952 6.520917,6.537784 0,1.315943 1.264531,3.870782 2.810069,5.67742 4.034999,4.716663 7.189931,10.527524 7.189931,13.24266 0,1.288948 -1.120604,4.750726 -2.490231,7.692839 -1.369627,2.942114 -2.494627,6.345964 -2.5,7.564113 -0.0054,1.218149 -0.805553,2.640707 -1.778179,3.161241 -2.615559,1.399805 -8.653166,2.369034 -9.49754,1.524659 z M 58.082208,63.55458 60.959101,59.472721 60.279716,54.942259 59.600331,50.411796 55.106264,45.85324 c -2.471737,-2.507205 -4.601961,-4.558555 -4.733832,-4.558555 -0.131871,0 -1.302176,3.06378 -2.600677,6.808399 -2.873679,8.287122 -2.318732,13.093155 2.011908,17.423795 3.545011,3.545012 4.583982,3.298081 8.298545,-1.972299 z"
         id="path1067" />
      <path
         style="fill:#d53914"
         d="M -0.29468521,53.794685 V 0.29468521 H 53.705315 107.70531 V 53.794685 107.29469 L 86.455315,107.1422 c -15.691792,-0.1126 -19.680624,-0.36488 -15.25,-0.96452 12.851205,-1.73928 14.665892,-2.15172 15.162626,-3.44619 0.501441,-1.30674 -3.609434,-7.73075 -6.494221,-10.148436 -0.795146,-0.666398 -1.957127,-2.237412 -2.582179,-3.491142 -1.350273,-2.708379 -4.586226,-3.675413 -4.586226,-1.370551 0,0.865328 0.4875,1.573324 1.083333,1.573324 2.955961,0 -0.385525,2.514632 -6.125427,4.609685 C 57.497778,97.614737 56.278435,97.341178 46.422568,89.139042 39.504832,83.382043 36.20396,82.242155 34.215111,84.92345 l -1.387988,1.871235 -2.014544,-1.229521 c -2.476202,-1.511282 -3.5532,-0.183367 -2.678344,3.302339 l 0.617207,2.459146 -2.728197,1.037259 c -1.500508,0.570492 -4.401954,0.754479 -6.447656,0.40886 l -3.71946,-0.628399 -1.075407,2.009417 c -1.443144,2.696538 -1.359924,5.14285 0.174593,5.13233 2.536155,-0.01739 10.766601,4.522924 10.318017,5.691924 -0.281946,0.73474 0.776121,1.35241 2.736131,1.59729 1.757719,0.21961 -3.891648,0.4713 -12.554148,0.55932 l -15.75000021,0.16004 z M 60.029249,88.827893 c 0.806736,-0.806735 3.169056,-4.519235 5.2496,-8.25 2.080544,-3.730764 5.658049,-9.716755 7.950009,-13.302201 2.29196,-3.585446 4.480328,-8.188107 4.86304,-10.228135 L 78.787737,53.338416 66.014729,40.70367 C 52.710963,27.543913 49.890786,25.589873 46.680965,27.307717 41.756924,29.942983 25.688353,57.665981 27.363124,60.636658 c 1.650713,2.928004 19.926519,22.045025 24.681989,25.818072 5.418321,4.298963 5.91169,4.445609 7.984136,2.373163 z M 49.439365,74.695401 c -0.403728,-0.403727 -0.73405,-1.544028 -0.73405,-2.534003 0,-0.989974 -2.080951,-4.142993 -4.624335,-7.006708 l -4.624335,-5.206754 0.589443,-5.639488 c 0.324194,-3.101718 1.495261,-7.6362 2.602373,-10.076625 1.107111,-2.440426 2.022813,-5.26913 2.034892,-6.286009 0.03319,-2.79416 3.080478,-8.651129 4.501045,-8.651129 2.405609,0 6.520917,4.125952 6.520917,6.537784 0,1.315943 1.264531,3.870782 2.810069,5.67742 4.034999,4.716663 7.189931,10.527524 7.189931,13.24266 0,1.288948 -1.120604,4.750726 -2.490231,7.692839 -1.369627,2.942114 -2.494627,6.345964 -2.5,7.564113 -0.0054,1.218149 -0.805553,2.640707 -1.778179,3.161241 -2.615559,1.399805 -8.653166,2.369034 -9.49754,1.524659 z M 58.082208,63.55458 60.959101,59.472721 60.279716,54.942259 59.600331,50.411796 55.106264,45.85324 c -2.471737,-2.507205 -4.601961,-4.558555 -4.733832,-4.558555 -0.131871,0 -1.302176,3.06378 -2.600677,6.808399 -2.873679,8.287122 -2.318732,13.093155 2.011908,17.423795 3.545011,3.545012 4.583982,3.298081 8.298545,-1.972299 z"
         id="path1065" />
      <path
         style="fill:#b13112"
         d="M -0.23587784,50.544685 -0.29468521,0.29468521 H 53.705315 107.70531 l -0.0553,41.74999979 -0.0553,41.75 -3.02364,2.391458 -3.02364,2.391457 -5.449074,-1.219451 C 92.3226,86.513185 90.172009,85.410391 89.095281,83.767096 88.240617,82.462714 86.010007,80.491981 84.13837,79.387687 c -2.161818,-1.275503 -3.201235,-2.533542 -2.849843,-3.449253 0.304224,-0.792796 0.145836,-1.693173 -0.351974,-2.000836 -0.875025,-0.540796 -3.866252,3.117985 -11.259605,13.772418 -6.248498,9.004602 -12.259565,9.330558 -21.016327,1.139632 -2.552493,-2.387558 -5.949139,-5.02576 -7.548101,-5.86267 -1.598963,-0.83691 -4.482205,-3.178009 -6.407205,-5.202443 -5.415755,-5.695498 -11.959783,-9.930067 -13.290022,-8.599828 -1.568954,1.568954 -3.756855,1.37753 -5.843992,-0.511303 -0.985323,-0.891705 -2.370756,-1.39824 -3.078741,-1.125633 -2.325794,0.895537 -4.1001658,9.3884 -3.3964693,16.256882 l 0.6526851,6.37058 -1.6169337,1.309726 C 5.0160248,94.00879 2.1947464,96.929474 1.0141222,98.853468 l -1.19119267,1.941222 z M 60.029249,88.827893 c 0.806736,-0.806735 3.169056,-4.519235 5.2496,-8.25 2.080544,-3.730764 5.658049,-9.716755 7.950009,-13.302201 2.29196,-3.585446 4.480328,-8.188107 4.86304,-10.228135 L 78.787737,53.338416 66.014729,40.70367 C 52.710963,27.543913 49.890786,25.589873 46.680965,27.307717 41.756924,29.942983 25.688353,57.665981 27.363124,60.636658 c 1.650713,2.928004 19.926519,22.045025 24.681989,25.818072 5.418321,4.298963 5.91169,4.445609 7.984136,2.373163 z M 49.439365,74.695401 c -0.403728,-0.403727 -0.73405,-1.544028 -0.73405,-2.534003 0,-0.989974 -2.080951,-4.142993 -4.624335,-7.006708 l -4.624335,-5.206754 0.589443,-5.639488 c 0.324194,-3.101718 1.495261,-7.6362 2.602373,-10.076625 1.107111,-2.440426 2.022813,-5.26913 2.034892,-6.286009 0.03319,-2.79416 3.080478,-8.651129 4.501045,-8.651129 2.405609,0 6.520917,4.125952 6.520917,6.537784 0,1.315943 1.264531,3.870782 2.810069,5.67742 4.034999,4.716663 7.189931,10.527524 7.189931,13.24266 0,1.288948 -1.120604,4.750726 -2.490231,7.692839 -1.369627,2.942114 -2.494627,6.345964 -2.5,7.564113 -0.0054,1.218149 -0.805553,2.640707 -1.778179,3.161241 -2.615559,1.399805 -8.653166,2.369034 -9.49754,1.524659 z M 58.082208,63.55458 60.959101,59.472721 60.279716,54.942259 59.600331,50.411796 55.106264,45.85324 c -2.471737,-2.507205 -4.601961,-4.558555 -4.733832,-4.558555 -0.131871,0 -1.302176,3.06378 -2.600677,6.808399 -2.873679,8.287122 -2.318732,13.093155 2.011908,17.423795 3.545011,3.545012 4.583982,3.298081 8.298545,-1.972299 z"
         id="path1063" />
      <path
         style="fill:#6c4d2e"
         d="m 49.610077,88.294685 c -2.75,-2.75 -5.43302,-5 -5.962267,-5 -0.529247,0 -4.40213,-3.189483 -8.606407,-7.087741 -4.204277,-3.898257 -9.374828,-8.233056 -11.490114,-9.632886 -4.244978,-2.809194 -4.689661,-4.731356 -2.661017,-11.502367 0.88013,-2.937612 0.896461,-4.416988 0.06349,-5.750792 -0.616809,-0.987667 -0.8568,-2.807858 -0.533315,-4.044867 0.838084,-3.204839 -1.690674,-2.134755 -3.751721,1.587601 -0.90214,1.629311 -2.91985,3.316062 -4.543157,3.797956 -4.8738525,1.446847 -5.7852085,2.166179 -6.5988363,5.208447 -0.7354565,2.749974 -3.2069408,5.424649 -5.01254755,5.424649 -0.4448787,0 -0.80887036,-13.725 -0.80887036,-30.5 V 0.29468521 H 53.705315 107.70531 V 23.253418 46.21215 l -5.25,-2.602216 C 99.514682,42.15238 95.080703,38.651496 92.375328,35.651202 86.244315,28.85183 81.280743,28.347464 78.246265,34.215497 l -1.38508,2.678449 2.881326,4.45037 c 4.880811,7.538683 10.224467,13.950369 11.62658,13.950369 2.200333,0 1.509365,1.739728 -0.93459,2.353122 C 86.57165,58.617321 82.511322,63.547683 74.321385,77.213594 65.646222,91.689162 64.060157,93.294685 58.43519,93.294685 h -3.825113 z m 10.419172,0.533208 c 0.806736,-0.806735 3.169056,-4.519235 5.2496,-8.25 2.080544,-3.730764 5.658049,-9.716755 7.950009,-13.302201 2.29196,-3.585446 4.480328,-8.188107 4.86304,-10.228135 L 78.787737,53.338416 66.014729,40.70367 C 52.710963,27.543913 49.890786,25.589873 46.680965,27.307717 41.756924,29.942983 25.688353,57.665981 27.363124,60.636658 c 1.650713,2.928004 19.926519,22.045025 24.681989,25.818072 5.418321,4.298963 5.91169,4.445609 7.984136,2.373163 z M 49.439365,74.695401 c -0.403728,-0.403727 -0.73405,-1.544028 -0.73405,-2.534003 0,-0.989974 -2.080951,-4.142993 -4.624335,-7.006708 l -4.624335,-5.206754 0.589443,-5.639488 c 0.324194,-3.101718 1.495261,-7.6362 2.602373,-10.076625 1.107111,-2.440426 2.022813,-5.26913 2.034892,-6.286009 0.03319,-2.79416 3.080478,-8.651129 4.501045,-8.651129 2.405609,0 6.520917,4.125952 6.520917,6.537784 0,1.315943 1.264531,3.870782 2.810069,5.67742 4.034999,4.716663 7.189931,10.527524 7.189931,13.24266 0,1.288948 -1.120604,4.750726 -2.490231,7.692839 -1.369627,2.942114 -2.494627,6.345964 -2.5,7.564113 -0.0054,1.218149 -0.805553,2.640707 -1.778179,3.161241 -2.615559,1.399805 -8.653166,2.369034 -9.49754,1.524659 z M 58.082208,63.55458 60.959101,59.472721 60.279716,54.942259 59.600331,50.411796 55.106264,45.85324 c -2.471737,-2.507205 -4.601961,-4.558555 -4.733832,-4.558555 -0.131871,0 -1.302176,3.06378 -2.600677,6.808399 -2.873679,8.287122 -2.318732,13.093155 2.011908,17.423795 3.545011,3.545012 4.583982,3.298081 8.298545,-1.972299 z"
         id="path1061" />
      <path
         style="fill:#8f280f"
         d="m 49.610077,88.294685 c -2.75,-2.75 -5.43302,-5 -5.962267,-5 -0.529247,0 -4.40213,-3.189483 -8.606407,-7.087741 -4.204277,-3.898257 -9.374828,-8.233056 -11.490114,-9.632886 -4.244978,-2.809194 -4.689661,-4.731356 -2.661017,-11.502367 0.88013,-2.937612 0.896461,-4.416988 0.06349,-5.750792 -0.616809,-0.987667 -0.8568,-2.807858 -0.533315,-4.044867 0.838084,-3.204839 -1.690674,-2.134755 -3.751721,1.587601 -0.90214,1.629311 -2.91985,3.316062 -4.543157,3.797956 -4.8738525,1.446847 -5.7852085,2.166179 -6.5988363,5.208447 -0.7354565,2.749974 -3.2069408,5.424649 -5.01254755,5.424649 -0.4448787,0 -0.80887036,-13.725 -0.80887036,-30.5 V 0.29468521 H 53.705315 107.70531 V 23.253418 46.21215 l -5.25,-2.602216 C 99.514682,42.15238 95.080703,38.651496 92.375328,35.651202 86.244315,28.85183 81.280743,28.347464 78.246265,34.215497 l -1.38508,2.678449 2.881326,4.45037 c 4.880811,7.538683 10.224467,13.950369 11.62658,13.950369 2.200333,0 1.509365,1.739728 -0.93459,2.353122 C 86.57165,58.617321 82.511322,63.547683 74.321385,77.213594 65.646222,91.689162 64.060157,93.294685 58.43519,93.294685 h -3.825113 z m 10.089129,2.003269 c 1.024324,-0.548201 3.774514,-4.485701 6.111532,-8.75 2.337018,-4.264298 6.146279,-10.678269 8.465023,-14.253269 2.342801,-3.61209 4.525417,-8.393318 4.912552,-10.761409 l 0.696653,-4.26141 -3.307567,-2.73859 c -1.819162,-1.506225 -6.231673,-5.888591 -9.805582,-9.738591 -10.2278,-11.017918 -17.128975,-17.5 -18.631448,-17.5 -3.60513,0 -23.142623,34.0488 -22.04421,38.417362 0.773338,3.07569 29.013111,30.582638 31.397404,30.582638 0.188779,0 1.181319,-0.448529 2.205643,-0.996731 z M 45.822188,65.663992 c -4.980645,-3.488579 -5.821746,-13.056894 -1.848021,-21.022991 0.780905,-1.565474 2.001602,-4.995408 2.712661,-7.622077 0.711059,-2.626669 1.709462,-5.033251 2.218674,-5.347961 1.543393,-0.95387 4.721981,2.691921 5.373143,6.162911 0.336844,1.795536 1.920645,4.517948 3.519557,6.049803 1.598912,1.531855 2.907113,3.164471 2.907113,3.628037 0,1.555764 -6.178806,-3.685969 -7.623149,-6.467029 -2.491943,-4.798199 -3.229105,-4.061668 -6.755784,6.75 -2.156685,6.611708 -2.050682,10.737561 0.399257,15.539838 2.295397,4.49935 2.27384,4.554931 -0.903451,2.329469 z"
         id="path1059" />
      <path
         style="fill:#72230d"
         d="m 59.705315,91.353702 c 0,-0.517541 0.424409,-1.203282 0.943131,-1.52387 0.518722,-0.320588 2.848495,-4.059645 5.177273,-8.309017 2.328779,-4.249371 6.131298,-10.65113 8.450042,-14.22613 2.342801,-3.61209 4.525417,-8.393318 4.912552,-10.761409 l 0.696653,-4.26141 -3.307567,-2.73859 c -1.819162,-1.506225 -6.231673,-5.888591 -9.805582,-9.738591 -10.2278,-11.017918 -17.128975,-17.5 -18.631448,-17.5 -3.044286,0 -22.435054,32.571617 -22.435054,37.685252 0,0.887498 4.811574,6.496384 10.692388,12.464191 12.269993,12.4515 11.770825,14.562443 -0.761228,3.21917 -4.637138,-4.197264 -9.89366,-8.750674 -11.68116,-10.118689 -4.050754,-3.100138 -4.042479,-4.202722 0.112628,-15.006603 5.415656,-14.081492 6.637372,-17.699127 6.637372,-19.653983 v -1.843797 l -5.25,0.697461 c -2.8875,0.383603 -7.275,0.935707 -9.75,1.226896 -2.475,0.291189 -5.406141,1.363108 -6.5136475,2.382041 -1.107506,1.018933 -3.695006,2.555122 -5.75,3.413753 l -3.73635271,1.561148 V 19.308105 0.29468521 H 53.705315 107.70531 V 15.320365 30.346045 l -2.95034,-1.52568 c -1.62269,-0.839124 -5.335182,-1.532314 -8.249995,-1.540422 -6.781792,-0.01886 -10.20483,-1.714387 -10.616082,-5.258429 -0.498961,-4.29989 -3.032929,-3.508072 -10.008124,3.127355 -1.361102,1.294801 -3.757393,2.801322 -5.325092,3.347825 -1.567699,0.546503 -2.850362,1.433027 -2.850362,1.970053 0,0.537027 2.388203,3.530506 5.307119,6.652175 8.030816,8.588655 13.692881,16.207213 13.692881,18.424376 0,1.093047 -1.255842,3.417682 -2.790759,5.165856 -1.534918,1.748175 -6.096363,8.782582 -10.136545,15.632015 -4.040183,6.849434 -8.234194,13.241016 -9.320025,14.203516 -2.1296,1.887715 -4.752671,2.334223 -4.752671,0.809017 z M 45.822188,65.663992 c -4.980645,-3.488579 -5.821746,-13.056894 -1.848021,-21.022991 0.780905,-1.565474 2.001602,-4.995408 2.712661,-7.622077 0.711059,-2.626669 1.709462,-5.033251 2.218674,-5.347961 1.543393,-0.95387 4.721981,2.691921 5.373143,6.162911 0.336844,1.795536 1.920645,4.517948 3.519557,6.049803 1.598912,1.531855 2.907113,3.164471 2.907113,3.628037 0,1.555764 -6.178806,-3.685969 -7.623149,-6.467029 -2.491943,-4.798199 -3.229105,-4.061668 -6.755784,6.75 -2.156685,6.611708 -2.050682,10.737561 0.399257,15.539838 2.295397,4.49935 2.27384,4.554931 -0.903451,2.329469 z"
         id="path1057" />
      <path
         style="fill:#541a09"
         d="m 62.741278,89.519721 c -0.053,-1.879023 6.572552,-14.68797 11.479525,-22.192958 4.174234,-6.384298 6.277157,-13.36008 4.734211,-15.704247 -0.424341,-0.644694 -2.631078,-2.669694 -4.90386,-4.5 C 71.778372,45.292209 65.835079,38.992047 60.843836,33.122155 48.825758,18.988439 46.297881,18.263308 41.568291,27.592893 c -1.450363,2.860986 -5.612863,10.952318 -9.25,17.980739 -3.637137,7.02842 -6.612976,13.473885 -6.612976,14.323254 0,0.849369 3.6,5.303379 8,9.897799 7.871885,8.219716 10.200373,11.404106 5.720023,7.82258 -6.665123,-5.328 -18.720023,-15.704221 -18.720023,-16.113205 0,-0.694301 7.686171,-18.542132 11.717721,-27.209375 3.416882,-7.345795 6.912645,-16.415612 7.943155,-20.608646 0.347354,-1.413348 -0.05721,-2.329463 -1.226927,-2.778326 -2.117393,-0.81252 -15.339841,2.185684 -17.433949,3.953167 -2.147337,1.81241 -8.515329,4.167441 -15.7500002,5.824717 l -6.25000001,1.431713 v -3.288868 c 0,-1.808877 0.59282792,-3.780871 1.31739541,-4.382209 1.519648,-1.261195 13.3904538,-5.1194663 15.8101598,-5.1386466 0.895156,-0.0071 2.187756,-0.6879012 2.872445,-1.5129012 0.798619,-0.9622765 0.860003,-1.5 0.171235,-1.5 -1.504169,0 -11.102674,2.5867998 -14.4863349,3.9040718 -5.14222118,2.001885 -5.68490031,1.581473 -5.68490031,-4.4040718 V 0.29468521 H 53.705315 c 37.497794,0 53.999995,0.32514542 53.999995,1.06396999 0,0.5851836 -1.2375,0.9673235 -2.75,0.8491999 C 99.480004,1.780243 96.919733,2.3385755 93.398577,4.7280963 L 89.812745,7.1615074 86.941339,6.0776726 C 84.267313,5.0683405 68.498643,5.952692 53.955315,7.9276219 48.66088,8.6465865 48.444603,10.426766 52.991026,15.864686 c 1.807141,2.1615 4.027952,5.054999 4.935136,6.429999 0.907185,1.375 7.310631,8.575 14.229882,16 6.91925,7.425 12.822085,14.412346 13.117411,15.527436 0.365573,1.380327 -1.32661,4.891262 -5.301724,11 -3.211275,4.93491 -7.378364,11.557363 -9.260198,14.716562 -4.176805,7.011965 -7.921721,11.701671 -7.970255,9.981038 z M 45.822188,65.663992 c -4.817285,-3.374157 -5.854015,-13.386394 -2.110415,-20.381375 0.631404,-1.179788 1.799945,-4.340382 2.596758,-7.023542 0.796813,-2.68316 1.915414,-5.166887 2.48578,-5.519393 1.511609,-0.934226 4.701232,2.323431 5.40291,5.518154 0.332898,1.515671 1.933404,4.0282 3.556681,5.583398 1.623277,1.555199 2.951413,3.206914 2.951413,3.67048 0,1.555764 -6.178806,-3.685969 -7.623149,-6.467029 -2.02787,-3.904634 -4.149655,-3.479295 -4.988461,1 -0.386229,2.0625 -1.30662,5.198047 -2.045313,6.967881 -1.908278,4.572049 -1.664269,9.732208 0.677247,14.321957 2.295397,4.49935 2.27384,4.554931 -0.903451,2.329469 z"
         id="path1055" />
      <path
         style="fill:#36180a"
         d="m 68.934506,77.544685 c 0.652473,-1.5125 3.342826,-6.07485 5.978562,-10.138556 l 4.792247,-7.388557 v -4.281457 -4.281457 l -5.324609,-4.829986 c -2.928535,-2.656493 -6.615492,-6.629987 -8.193238,-8.829987 -1.577745,-2.2 -3.986365,-5.232806 -5.352488,-6.739569 -1.366123,-1.506763 -2.244255,-2.979174 -1.951405,-3.272024 0.845893,-0.845893 25.82174,25.39776 25.82174,27.132483 0,0.859534 -0.918239,2.758961 -2.04053,4.220949 -1.122292,1.461989 -4.739559,6.820661 -8.038371,11.908161 -6.145961,9.478435 -7.78344,11.348391 -5.691908,6.5 z M 27.530356,66.391511 c -2.571227,-1.978254 -4.995033,-3.920632 -5.386235,-4.316395 -1.141781,-1.155092 11.933536,-29.481339 15.10388,-32.720907 2.589283,-2.645821 2.604498,-0.327463 0.03008,4.583336 -1.400458,2.671427 -4.620657,9.266045 -7.155996,14.654706 -5.211914,11.077505 -5.232993,13.156311 -0.180203,17.771322 4.593056,4.195109 3.028299,4.213237 -2.411525,0.02794 z"
         id="path1053" />
    </g>
  </g>
</svg>
